<svg xmlns="http://www.w3.org/2000/svg" xmlns:xlink="http://www.w3.org/1999/xlink" width="500" zoomAndPan="magnify" viewBox="0 0 375 374.999991" height="500" preserveAspectRatio="xMidYMid meet" version="1.0"><defs><clipPath id="b11844825c"><path d="M 34.773438 0 L 340.023438 0 L 340.023438 374.949219 L 34.773438 374.949219 Z M 34.773438 0 " clip-rule="nonzero"/></clipPath></defs><g clip-path="url(#b11844825c)"><path fill="#000000" d="M 78.371094 284.753906 L 78.371094 264.535156 L 98.578125 264.535156 L 98.578125 284.753906 Z M 118.78125 284.753906 L 118.78125 264.535156 L 138.992188 264.535156 L 138.992188 284.753906 Z M 311.0625 319.652344 L 296.386719 319.652344 L 296.386719 304.964844 L 276.175781 304.964844 L 276.175781 264.535156 L 296.386719 264.535156 L 296.386719 304.964844 L 311.0625 304.964844 Z M 215.558594 374.769531 L 200.875 374.769531 L 200.875 360.082031 L 215.558594 360.082031 L 215.558594 339.867188 L 235.765625 339.867188 L 235.765625 325.183594 L 215.558594 325.183594 L 215.558594 304.964844 L 235.765625 304.964844 L 235.765625 264.535156 L 255.972656 264.535156 L 255.972656 304.964844 L 235.765625 304.964844 L 235.765625 325.183594 L 250.449219 325.183594 L 250.449219 339.867188 L 270.65625 339.867188 L 270.65625 360.082031 L 250.449219 360.082031 L 250.449219 339.867188 L 235.765625 339.867188 L 235.765625 360.082031 L 215.558594 360.082031 Z M 340.003906 264.535156 L 187.378906 0.0742188 L 34.75 264.535156 L 58.164062 264.535156 L 58.164062 284.753906 L 78.371094 284.753906 L 78.371094 304.964844 L 63.6875 304.964844 L 63.6875 319.652344 L 78.371094 319.652344 L 78.371094 304.964844 L 98.578125 304.964844 L 98.578125 284.753906 L 118.78125 284.753906 L 118.78125 304.964844 L 138.992188 304.964844 L 138.992188 325.183594 L 124.308594 325.183594 L 124.308594 339.867188 L 104.097656 339.867188 L 104.097656 360.082031 L 124.308594 360.082031 L 124.308594 339.867188 L 138.992188 339.867188 L 138.992188 360.082031 L 159.195312 360.082031 L 159.195312 374.773438 L 173.875 374.773438 L 173.875 360.082031 L 159.191406 360.082031 L 159.191406 339.867188 L 138.992188 339.867188 L 138.992188 325.183594 L 159.191406 325.183594 L 159.191406 304.964844 L 138.992188 304.964844 L 138.992188 284.753906 L 159.191406 284.753906 L 159.191406 197.339844 L 131.015625 197.339844 L 187.378906 126.515625 L 243.742188 197.339844 L 215.558594 197.339844 L 215.558594 284.753906 L 316.589844 284.753906 L 316.589844 264.535156 Z M 340.003906 264.535156 " fill-opacity="1" fill-rule="nonzero"/></g></svg>